<!-- Generator: Adobe Illustrator 24.0.0, SVG Export Plug-In  -->
<svg version="1.1" xmlns="http://www.w3.org/2000/svg" xmlns:xlink="http://www.w3.org/1999/xlink" x="0px" y="0px"
	 width="1049.35px" height="655.26px" viewBox="0 0 1049.35 655.26" style="enable-background:new 0 0 1049.35 655.26;"
	 xml:space="preserve">
<style type="text/css">
	.st0{fill:#F0DB4F;}
</style>
<defs>
</defs>
<g>
	<path class="st0" d="M873.41,610.04c46.04-0.82,65.77-25.49,65.77-71.53c0-19.73-3.29-38.64-5.76-59.19
		c-3.29-19.73-6.58-40.29-6.58-62.48c0-52.62,23.02-80.57,59.19-89.61v-1.65c-36.17-9.87-59.19-36.17-59.19-88.79
		c0-22.2,3.29-41.93,6.58-62.48c2.47-19.73,5.76-39.46,5.76-58.37c0-44.4-17.26-69.88-64.95-70.7h-14.8V0.09L859.26,0h-669
		l-0.34,0.17v45.05h-14.8c-48.51,0-64.95,26.31-64.95,70.7c0,18.91,2.46,38.64,5.75,58.37c3.29,20.55,5.76,40.29,5.76,62.48
		c0.82,52.62-22.2,78.93-59.19,88.79v1.65c37,9.04,60.02,37,59.19,89.61c0,22.2-2.46,42.75-5.76,62.48
		c-3.29,20.55-5.75,39.46-5.75,59.19c0,46.04,18.91,71.53,64.95,71.53h14.8v44.79l0.34,0.18h669l0.18-0.08v-44.88H873.41z"/>
	<path d="M84.26,433l-13.5-72.5l-49-30l73-50v-185l38-67l57.16-28.33V0h-17.26C102.77,0,53.44,32.06,53.44,107.7
		c0,23.02,3.29,45.22,6.58,68.24c3.29,23.02,6.58,46.04,6.58,69.06c0,28.78-8.22,60.84-66.6,60.84v41.93
		c58.37,0,66.6,35.35,66.6,60.84c0,22.2-3.29,44.4-6.58,66.59c-3.29,22.2-6.58,45.22-6.58,67.42c0,83.04,50.97,112.64,119.21,112.64
		h17.26v-0.43L95.26,605L84.26,433z"/>
	<path d="M175.12,610.04c-46.04,0-64.95-25.49-64.95-71.53c0-19.73,2.46-38.64,5.75-59.19c3.29-19.73,5.76-40.29,5.76-62.48
		c0.82-52.62-22.2-80.57-59.19-89.61v-1.65c37-9.87,60.02-36.17,59.19-88.79c0-22.2-2.46-41.93-5.76-62.48
		c-3.29-19.73-5.75-39.46-5.75-58.37c0-44.4,16.44-70.7,64.95-70.7h14.8V0.17L132.76,28.5l-38,67v185l-73,50l49,30l13.5,72.5l11,172
		l94.66,49.82v-44.79H175.12z"/>
	<path d="M982.76,245c0-23.02,3.29-46.04,6.58-69.06c3.29-23.02,6.58-45.22,6.58-68.24C995.91,32.06,945.76,0,875.88,0h-16.44v0.09
		L923.26,31l47,106v125l18,45l31,23l-52,43l-13,117v101l-43,40l-51.82,23.92v0.34h17.26c67.42,0,119.21-29.6,119.21-112.64
		c0-22.2-3.29-45.22-6.58-67.42c-3.29-22.2-6.58-44.4-6.58-66.59c0-25.49,8.22-60.84,66.59-60.84v-41.93
		C990.98,305.84,982.76,273.78,982.76,245z"/>
	<path d="M954.26,591V490l13-117l52-43l-31-23l-18-45V137l-47-106L859.44,0.09v45.13h14.8c47.68,0.82,64.95,26.31,64.95,70.7
		c0,18.91-3.29,38.64-5.76,58.37c-3.29,20.55-6.58,40.29-6.58,62.48c0,52.62,23.02,78.93,59.19,88.79v1.65
		c-36.17,9.04-59.19,37-59.19,89.61c0,22.2,3.29,42.75,6.58,62.48c2.47,20.55,5.76,39.46,5.76,59.19
		c0,46.04-19.73,70.71-65.77,71.53h-13.98v44.88L911.26,631L954.26,591z"/>
</g>
<g>
	<path d="M268.23,214.54c0,10.53,0.22,41,0.45,44.14c0.45,4.93,2.69,7.17,7.39,7.17h14.34c1.57,0,1.79,0.67,1.79,1.57v5.38
		c0,1.12-0.22,1.79-2.02,1.79c-3.14,0-10.08-0.67-31.15-0.67c-19.72,0-28.46,0.67-30.92,0.67c-1.57,0-1.79-0.67-1.79-1.57v-5.6
		c0-1.12,0.22-1.57,1.34-1.57h9.63c7.62,0,9.19-1.12,9.86-7.17c0.22-2.24,0.9-37.2,0.9-63.19v-25.77c0-14.79-0.22-39.21-0.45-41.45
		c-0.45-4.48-2.69-4.93-8.74-4.93h-12.77c-1.12,0-1.34-0.45-1.34-1.79v-5.38c0-1.12,0.22-1.57,1.34-1.57
		c2.47,0,10.53,0.67,31.82,0.67c4.03,0,17.25-0.67,24.65-0.67c25.32,0,37.2,2.47,49.97,11.2c10.53,7.17,17.03,19.72,17.03,32.49
		c0,28.23-21.29,45.71-56.91,45.71c-8.29,0-17.25-0.22-24.42-1.12V214.54z M268.23,194.82c4.48,1.34,11.88,2.02,20.61,2.02
		c13.67,0,25.77-7.39,31.59-15.24c4.93-6.5,5.83-14.79,5.83-22.63c0-29.35-27.34-37.2-40.56-37.2c-3.81,0-13,0-17.48,1.57V194.82z"
		/>
	<path d="M449.5,228.43c0,10.76,0,21.73,0.45,26.44c0.67,6.95,3.14,7.84,5.83,7.84c1.34,0,4.71,0,7.39-0.67
		c1.79-0.45,2.46,0,2.69,0.9l0.67,2.91c0.22,1.34-0.22,1.79-1.12,2.02l-23.53,7.84c-1.34,0.45-2.69,0.9-4.48,0.9
		c-0.9,0-1.79-0.45-2.02-2.69l-1.79-13h-0.45c-6.27,8.74-19.27,15.68-30.47,15.68c-6.27,0-13.67-0.67-21.06-10.31
		c-9.19-11.88-8.74-19.27-8.74-43.92v-26.22c-0.22-6.27-3.36-7.84-8.51-8.51c-3.81-0.22-4.93-0.45-4.93-1.57v-4.03
		c0-1.34,0.45-1.79,2.46-1.79h19.94c1.34,0,2.24-0.22,3.14-0.45c0.9,0,1.79-0.22,2.46-0.22c1.57,0,2.69,1.12,2.46,2.69
		c-0.22,2.02-0.9,12.55-0.9,25.77v16.13c0,8.96-2.24,23.3,4.93,33.61c5.6,8.07,11.88,8.51,17.93,8.51c6.05,0,15.01-5.83,19.27-11.2
		c0.9-1.12,2.24-4.03,2.24-6.05v-53.55c-0.45-6.27-4.03-7.39-9.63-7.84c-3.81,0-4.93-0.45-4.93-1.57v-3.81
		c0-1.79,0.45-2.02,2.69-2.02h20.84c1.57,0,2.69-0.22,3.81-0.45c1.12,0,2.02-0.22,2.69-0.22c1.34,0,2.24,1.12,2.02,2.24
		c-0.22,2.02-1.34,7.84-1.34,29.8V228.43z"/>
	<path d="M491.18,214.32c0-11.43-1.79-13.67-8.07-17.03l-4.26-2.24c-1.34-0.45-1.79-0.67-1.79-1.57v-1.34c0-0.9,0.45-1.34,1.79-2.02
		l22.18-11.43c1.34-0.67,2.24-0.9,3.14-0.9c1.34,0,1.57,1.34,1.57,2.69l1.12,15.91h0.9c6.72-10.31,17.25-19.49,26.89-19.49
		c7.62,0,11.43,4.71,11.43,9.86c0,6.5-5.38,10.98-9.41,10.98c-2.46,0-4.71-0.9-6.5-1.79c-1.79-1.12-4.48-1.79-7.39-1.79
		c-3.58,0-9.41,2.24-13.22,9.41c-1.34,2.46-2.24,6.5-2.24,7.17v46.61c0,6.95,1.57,9.19,6.27,9.19h10.53c1.34,0,1.57,0.67,1.57,2.02
		v4.03c0,1.34-0.22,2.02-1.12,2.02c-1.34,0-11.65-0.67-23.75-0.67c-13.89,0-23.3,0.67-24.65,0.67c-0.9,0-1.34-0.45-1.34-2.24v-3.81
		c0-1.57,0.45-2.02,2.46-2.02h8.74c3.36,0,4.93-1.34,4.93-4.26c0.22-7.39,0.22-15.24,0.22-26.89V214.32z"/>
	<path d="M569.38,214.32c-0.45,2.02-0.67,5.6-0.67,10.76c0,21.96,13.89,38.54,31.82,38.54c13.67,0,23.3-7.84,27.11-15.24
		c0.45-0.9,1.34-1.34,2.02-1.12l2.91,1.57c0.67,0.22,1.12,0.9,0,3.36c-4.03,8.96-15.68,24.42-35.63,24.42
		c-12.77,0-26.89-3.81-35.18-15.91c-7.84-11.43-9.86-19.72-9.86-35.4c0-8.74,2.24-23.75,14.12-35.63
		c9.63-9.86,20.84-11.88,32.04-11.88c25.77,0,32.94,24.2,32.94,32.94c0,3.14-2.69,3.58-6.27,3.58H569.38z M605.01,207.59
		c4.26,0,6.05-1.12,6.05-3.14c0-5.15-2.69-19.94-17.25-19.94c-9.86,0-19.27,6.5-23.53,23.08H605.01z"/>
	<path d="M667.3,183.84c0-3.58,0-43.24-0.67-52.88c-0.22-4.93-2.24-7.62-10.98-7.62h-9.86c-0.9,0-1.57-0.22-1.57-1.12v-6.05
		c0-1.12,0.22-1.57,1.57-1.57c2.46,0,10.75,0.67,32.04,0.67c19.05,0,26.89-0.67,30.25-0.67c1.34,0,1.79,0.45,1.79,1.34v5.6
		c0,1.34-0.45,1.79-1.79,1.79h-11.2c-6.05,0-8.07,1.79-8.29,6.5c-0.22,3.59-0.67,32.27-0.67,59.38v10.31
		c0,28.46-0.9,50.42-0.9,55.57c0,14.79-1.57,25.99-8.29,37.42c-9.19,15.91-24.65,30.47-41.68,30.47c-4.03,0-15.24-3.14-15.24-13
		c0-6.72,5.38-10.76,12.55-10.76c7.62,0,15.01,4.93,17.48,11.88c4.93-1.57,9.86-6.72,12.32-14.12c5.6-16.13,3.14-81.11,3.14-97.47
		V183.84z"/>
	<path d="M743.26,265.63c-2.69-2.02-4.03-2.69-5.15-2.69c-1.35,0-2.24,1.57-3.59,3.81c-1.34,2.46-2.46,2.69-4.03,2.69
		c-1.35,0-2.47-1.12-2.02-3.59c0.9-5.6,3.14-34.06,3.81-40.56c0.22-1.34,0.67-1.34,1.57-1.34l3.36,0.22c0.9,0,1.34,0.45,1.34,1.79
		c0.22,7.17,0.67,14.56,8.07,25.99c6.72,10.53,19.05,16.58,31.37,16.58c13.44,0,30.47-8.29,30.47-28.46
		c0-23.08-16.58-31.59-34.51-37.87c-6.95-2.46-23.08-8.07-32.71-18.15c-7.39-7.39-11.2-17.93-11.2-32.71
		c0-11.2,6.95-22.18,13.89-28.68c8.07-7.62,19.27-10.76,31.37-10.76c12.77,0,22.63,3.81,26.44,5.6c2.02,1.12,3.14,0.9,4.26-0.22
		l2.91-2.69c1.12-0.9,1.79-1.34,2.91-1.34c1.12,0,1.79,1.79,1.79,3.81c0,7.84,2.91,30.7,3.14,35.63c0,1.12-0.22,1.57-1.12,1.79
		l-2.69,0.67c-0.67,0.22-1.12,0-1.34-0.67c-1.79-6.5-4.71-15.24-13.89-24.87c-6.05-6.5-13.89-9.63-24.42-9.63
		c-19.94,0-27.11,14.79-27.11,26.22c0,6.27,1.34,13.67,6.95,19.49c6.5,6.5,19.05,11.43,25.54,13.44
		c15.46,4.93,28.01,8.74,36.07,18.6c5.83,6.95,9.86,15.68,9.86,30.47c0,26.44-16.13,49.07-45.71,49.07
		C763.2,277.28,752.22,272.57,743.26,265.63z"/>
</g>
<g>
	<path d="M237.11,400.21l-5.6,83.2h-14.7l-10.31-29.6l-2.86-9.48l-2.99,10.25l-9.55,28.84h-14.2l-5.73-83.2h10.69l3.25,56.59
		l0.95,15.53l4.01-13.18l10.06-30.87h7.83l11.59,33.1l3.88,10.95l0.25-11.46l3.31-60.67H237.11z"/>
	<path d="M305.79,450.95c0,4.97-0.7,9.52-2.1,13.65c-1.4,4.14-3.42,7.68-6.05,10.63c-2.63,2.95-5.84,5.24-9.61,6.88
		c-3.78,1.63-8.06,2.45-12.86,2.45c-4.58,0-8.69-0.71-12.32-2.13c-3.63-1.42-6.71-3.51-9.23-6.27c-2.53-2.76-4.46-6.17-5.79-10.25
		c-1.34-4.07-2.01-8.76-2.01-14.07c0-4.97,0.7-9.49,2.1-13.59c1.4-4.09,3.42-7.62,6.05-10.57c2.63-2.95,5.83-5.24,9.61-6.87
		c3.78-1.63,8.06-2.45,12.86-2.45c4.58,0,8.69,0.71,12.32,2.13c3.63,1.42,6.71,3.5,9.23,6.24c2.52,2.74,4.46,6.14,5.79,10.22
		C305.12,441.02,305.79,445.69,305.79,450.95z M294.46,451.46c0-3.95-0.44-7.39-1.31-10.34c-0.87-2.95-2.11-5.41-3.72-7.38
		c-1.61-1.97-3.58-3.46-5.89-4.46c-2.31-1-4.89-1.5-7.73-1.5c-3.31,0-6.14,0.65-8.5,1.94c-2.36,1.3-4.29,3.02-5.79,5.19
		c-1.51,2.16-2.61,4.68-3.31,7.54s-1.05,5.87-1.05,9.01c0,3.95,0.43,7.41,1.31,10.38c0.87,2.97,2.11,5.44,3.72,7.42
		c1.61,1.97,3.56,3.46,5.86,4.46c2.29,1,4.88,1.5,7.77,1.5c3.31,0,6.14-0.65,8.5-1.94c2.36-1.29,4.29-3.02,5.79-5.19
		c1.51-2.16,2.61-4.68,3.31-7.54S294.46,454.64,294.46,451.46z"/>
	<path d="M321.83,419.5h9.87l0.45,10.31c1.87-2.21,3.67-4.04,5.41-5.51c1.74-1.46,3.45-2.64,5.12-3.53
		c1.68-0.89,3.38-1.52,5.12-1.88c1.74-0.36,3.54-0.54,5.41-0.54c6.58,0,11.55,1.94,14.93,5.82c3.37,3.88,5.06,9.73,5.06,17.54v41.7
		h-11.08v-40.8c0-5.01-0.93-8.71-2.8-11.11c-1.87-2.4-4.65-3.6-8.34-3.6c-1.36,0-2.68,0.2-3.98,0.6c-1.29,0.4-2.64,1.1-4.04,2.1
		c-1.4,1-2.92,2.35-4.55,4.04c-1.63,1.7-3.47,3.82-5.51,6.37v42.4h-11.08V419.5z"/>
	<path d="M390.27,452.79c0-5.43,0.74-10.26,2.23-14.48c1.48-4.22,3.6-7.79,6.33-10.69c2.74-2.91,6.03-5.11,9.87-6.62
		c3.84-1.51,8.12-2.26,12.83-2.26c2.04,0,4.04,0.13,6.02,0.38c1.97,0.25,3.92,0.66,5.82,1.21v-26.86h11.14v89.95h-9.93l-0.38-12.1
		c-3.1,4.5-6.45,7.83-10.06,9.99c-3.61,2.16-7.51,3.25-11.71,3.25c-3.65,0-6.86-0.76-9.64-2.29c-2.78-1.53-5.09-3.68-6.94-6.46
		c-1.85-2.78-3.24-6.12-4.17-10.03C390.73,461.88,390.27,457.55,390.27,452.79z M401.6,452.09c0,7.72,1.14,13.49,3.41,17.28
		c2.27,3.8,5.48,5.7,9.64,5.7c2.8,0,5.76-1.25,8.88-3.76c3.12-2.5,6.4-6.22,9.84-11.14v-29.66c-1.83-0.85-3.84-1.5-6.05-1.94
		c-2.21-0.45-4.39-0.67-6.56-0.67c-6.03,0-10.73,1.95-14.1,5.86C403.28,437.66,401.6,443.78,401.6,452.09z"/>
	<path d="M519.17,448.08c0,1.57-0.02,2.89-0.06,3.95c-0.04,1.06-0.11,2.06-0.19,2.99h-44.88c0,6.54,1.82,11.55,5.47,15.05
		c3.65,3.5,8.91,5.25,15.79,5.25c1.87,0,3.73-0.07,5.6-0.22c1.87-0.15,3.67-0.35,5.41-0.61c1.74-0.25,3.41-0.54,5-0.86
		c1.59-0.32,3.07-0.67,4.42-1.05v9.1c-3.01,0.85-6.42,1.54-10.22,2.07c-3.8,0.53-7.73,0.8-11.81,0.8c-5.47,0-10.19-0.74-14.13-2.23
		c-3.95-1.48-7.18-3.64-9.71-6.46c-2.53-2.82-4.39-6.28-5.6-10.38c-1.21-4.1-1.81-8.73-1.81-13.91c0-4.5,0.65-8.75,1.94-12.76
		c1.29-4.01,3.18-7.53,5.67-10.57c2.48-3.03,5.53-5.44,9.14-7.23c3.61-1.78,7.7-2.67,12.29-2.67c4.46,0,8.4,0.7,11.84,2.1
		c3.44,1.4,6.33,3.38,8.69,5.95c2.36,2.57,4.14,5.69,5.35,9.36C518.57,439.44,519.17,443.54,519.17,448.08z M507.65,446.49
		c0.13-2.84-0.15-5.44-0.83-7.8c-0.68-2.36-1.73-4.38-3.15-6.08c-1.42-1.7-3.19-3.02-5.32-3.98c-2.12-0.95-4.58-1.43-7.38-1.43
		c-2.42,0-4.63,0.47-6.62,1.4c-2,0.93-3.71,2.25-5.16,3.95c-1.44,1.7-2.61,3.73-3.5,6.11c-0.89,2.38-1.44,4.99-1.65,7.83H507.65z"/>
	<path d="M539.48,419.5h10.12l0.32,11.78c3.78-4.54,7.5-7.83,11.17-9.87c3.67-2.04,7.37-3.06,11.11-3.06
		c6.62,0,11.64,2.14,15.05,6.43c3.42,4.29,5,10.65,4.74,19.1h-11.2c0.13-5.6-0.69-9.67-2.45-12.19c-1.76-2.52-4.34-3.79-7.73-3.79
		c-1.49,0-2.98,0.27-4.49,0.8c-1.51,0.53-3.06,1.38-4.65,2.55c-1.59,1.17-3.28,2.66-5.06,4.49c-1.78,1.83-3.69,4.03-5.73,6.62v41.06
		h-11.2V419.5z"/>
	<path d="M738.85,400.21l-5.6,83.2h-14.71l-10.31-29.6l-2.86-9.48l-2.99,10.25l-9.55,28.84h-14.2l-5.73-83.2h10.69l3.25,56.59
		l0.95,15.53l4.01-13.18l10.06-30.87h7.83l11.59,33.1l3.88,10.95l0.25-11.46l3.31-60.67H738.85z"/>
	<path d="M805.88,448.08c0,1.57-0.02,2.89-0.06,3.95c-0.04,1.06-0.11,2.06-0.19,2.99h-44.88c0,6.54,1.82,11.55,5.47,15.05
		c3.65,3.5,8.91,5.25,15.79,5.25c1.87,0,3.73-0.07,5.6-0.22c1.87-0.15,3.67-0.35,5.41-0.61c1.74-0.25,3.41-0.54,5-0.86
		c1.59-0.32,3.07-0.67,4.42-1.05v9.1c-3.01,0.85-6.42,1.54-10.22,2.07c-3.8,0.53-7.73,0.8-11.81,0.8c-5.47,0-10.18-0.74-14.13-2.23
		c-3.95-1.48-7.18-3.64-9.71-6.46c-2.52-2.82-4.39-6.28-5.6-10.38c-1.21-4.1-1.81-8.73-1.81-13.91c0-4.5,0.65-8.75,1.94-12.76
		c1.29-4.01,3.18-7.53,5.67-10.57c2.48-3.03,5.53-5.44,9.13-7.23c3.61-1.78,7.7-2.67,12.29-2.67c4.46,0,8.4,0.7,11.84,2.1
		c3.44,1.4,6.33,3.38,8.69,5.95c2.36,2.57,4.14,5.69,5.35,9.36C805.28,439.44,805.88,443.54,805.88,448.08z M794.36,446.49
		c0.13-2.84-0.15-5.44-0.83-7.8c-0.68-2.36-1.73-4.38-3.15-6.08c-1.42-1.7-3.19-3.02-5.32-3.98c-2.12-0.95-4.58-1.43-7.38-1.43
		c-2.42,0-4.63,0.47-6.62,1.4c-2,0.93-3.71,2.25-5.16,3.95c-1.44,1.7-2.61,3.73-3.5,6.11c-0.89,2.38-1.44,4.99-1.66,7.83H794.36z"/>
	<path d="M878.2,450.31c0,5.31-0.73,10.05-2.2,14.23c-1.46,4.18-3.54,7.72-6.24,10.63c-2.7,2.91-5.97,5.14-9.84,6.68
		c-3.86,1.55-8.21,2.32-13.05,2.32c-3.78,0-7.64-0.36-11.59-1.08c-3.95-0.72-7.85-1.87-11.71-3.44v-86.19h11.08v24.76l-0.51,11.84
		c3.18-4.29,6.59-7.31,10.22-9.07c3.63-1.76,7.52-2.64,11.68-2.64c3.65,0,6.85,0.76,9.61,2.29c2.76,1.53,5.07,3.68,6.94,6.46
		c1.87,2.78,3.27,6.13,4.2,10.06C877.73,441.09,878.2,445.47,878.2,450.31z M866.87,450.82c0-3.35-0.24-6.43-0.73-9.23
		c-0.49-2.8-1.26-5.2-2.32-7.19c-1.06-1.99-2.42-3.55-4.07-4.68c-1.66-1.12-3.63-1.69-5.92-1.69c-1.4,0-2.82,0.22-4.26,0.67
		c-1.44,0.45-2.94,1.19-4.49,2.23c-1.55,1.04-3.18,2.42-4.9,4.14c-1.72,1.72-3.56,3.85-5.51,6.4v31c2.16,0.85,4.37,1.52,6.62,2.01
		c2.25,0.49,4.39,0.73,6.43,0.73c2.55,0,4.98-0.4,7.29-1.21c2.31-0.81,4.35-2.15,6.11-4.04c1.76-1.89,3.16-4.39,4.2-7.51
		C866.35,459.32,866.87,455.45,866.87,450.82z"/>
</g>
</svg>

