<!-- Generator: Adobe Illustrator 24.0.0, SVG Export Plug-In  -->
<svg version="1.1" xmlns="http://www.w3.org/2000/svg" xmlns:xlink="http://www.w3.org/1999/xlink" x="0px" y="0px"
	 width="661.35px" height="655.26px" viewBox="0 0 661.35 655.26" style="enable-background:new 0 0 661.35 655.26;"
	 xml:space="preserve">
<style type="text/css">
	.st0{fill:#F0DB4F;}
</style>
<defs>
</defs>
<g>
	<path class="st0" d="M485.41,610.04c46.04-0.82,65.77-25.49,65.77-71.53c0-19.73-3.29-38.64-5.76-59.19
		c-3.29-19.73-6.58-40.29-6.58-62.48c0-52.62,23.02-80.57,59.19-89.61v-1.65c-36.17-9.87-59.19-36.17-59.19-88.79
		c0-22.2,3.29-41.93,6.58-62.48c2.47-19.73,5.76-39.46,5.76-58.37c0-44.4-17.26-69.88-64.95-70.7h-14.8V0.09L471.26,0h-281
		l-0.34,0.17v45.05h-14.8c-48.51,0-64.95,26.31-64.95,70.7c0,18.91,2.46,38.64,5.75,58.37c3.29,20.55,5.76,40.29,5.76,62.48
		c0.82,52.62-22.2,78.93-59.19,88.79v1.65c37,9.04,60.02,37,59.19,89.61c0,22.2-2.46,42.75-5.76,62.48
		c-3.29,20.55-5.75,39.46-5.75,59.19c0,46.04,18.91,71.53,64.95,71.53h14.8v44.79l0.34,0.18h281l0.18-0.08v-44.88H485.41z"/>
	<path d="M84.26,433l-13.5-72.5l-49-30l73-50v-185l38-67l57.16-28.33V0h-17.26C102.77,0,53.44,32.06,53.44,107.7
		c0,23.02,3.29,45.22,6.58,68.24c3.29,23.02,6.58,46.04,6.58,69.06c0,28.78-8.22,60.84-66.6,60.84v41.93
		c58.37,0,66.6,35.35,66.6,60.84c0,22.2-3.29,44.4-6.58,66.59c-3.29,22.2-6.58,45.22-6.58,67.42c0,83.04,50.97,112.64,119.21,112.64
		h17.26v-0.43L95.26,605L84.26,433z"/>
	<path d="M175.12,610.04c-46.04,0-64.95-25.49-64.95-71.53c0-19.73,2.46-38.64,5.75-59.19c3.29-19.73,5.76-40.29,5.76-62.48
		c0.82-52.62-22.2-80.57-59.19-89.61v-1.65c37-9.87,60.02-36.17,59.19-88.79c0-22.2-2.46-41.93-5.76-62.48
		c-3.29-19.73-5.75-39.46-5.75-58.37c0-44.4,16.44-70.7,64.95-70.7h14.8V0.17L132.76,28.5l-38,67v185l-73,50l49,30l13.5,72.5l11,172
		l94.66,49.82v-44.79H175.12z"/>
	<path d="M594.76,245c0-23.02,3.29-46.04,6.58-69.06c3.29-23.02,6.58-45.22,6.58-68.24C607.91,32.06,557.76,0,487.88,0h-16.44v0.09
		L535.26,31l47,106v125l18,45l31,23l-52,43l-13,117v101l-43,40l-51.82,23.92v0.34h17.26c67.42,0,119.21-29.6,119.21-112.64
		c0-22.2-3.29-45.22-6.58-67.42c-3.29-22.2-6.58-44.4-6.58-66.59c0-25.49,8.22-60.84,66.59-60.84v-41.93
		C602.98,305.84,594.76,273.78,594.76,245z"/>
	<path d="M566.26,591V490l13-117l52-43l-31-23l-18-45V137l-47-106L471.44,0.09v45.13h14.8c47.68,0.82,64.95,26.31,64.95,70.7
		c0,18.91-3.29,38.64-5.76,58.37c-3.29,20.55-6.58,40.29-6.58,62.48c0,52.62,23.02,78.93,59.19,88.79v1.65
		c-36.17,9.04-59.19,37-59.19,89.61c0,22.2,3.29,42.75,6.58,62.48c2.47,20.55,5.76,39.46,5.76,59.19
		c0,46.04-19.73,70.71-65.77,71.53h-13.98v44.88L523.26,631L566.26,591z"/>
</g>
<g>
	<path d="M254.04,372.38c0-4.91,0-59.28-0.92-72.49c-0.31-6.76-3.07-10.44-15.05-10.44h-13.52c-1.23,0-2.15-0.31-2.15-1.54v-8.29
		c0-1.54,0.31-2.15,2.15-2.15c3.38,0,14.74,0.92,43.92,0.92c26.11,0,36.86-0.92,41.46-0.92c1.84,0,2.46,0.61,2.46,1.84v7.68
		c0,1.84-0.61,2.46-2.46,2.46h-15.36c-8.29,0-11.06,2.46-11.37,8.91c-0.31,4.91-0.92,44.23-0.92,81.4v14.13
		c0,39.01-1.23,69.11-1.23,76.17c0,20.27-2.15,35.63-11.37,51.29c-12.59,21.81-33.79,41.77-57.13,41.77
		c-5.53,0-20.89-4.3-20.89-17.81c0-9.21,7.37-14.74,17.2-14.74c10.44,0,20.58,6.76,23.96,16.28c6.76-2.15,13.52-9.21,16.89-19.35
		c7.68-22.12,4.3-111.19,4.3-133.61V372.38z"/>
	<path d="M358.17,484.49c-3.69-2.76-5.53-3.69-7.06-3.69c-1.84,0-3.07,2.15-4.92,5.22c-1.84,3.38-3.38,3.69-5.53,3.69
		c-1.84,0-3.38-1.54-2.77-4.91c1.23-7.68,4.3-46.69,5.22-55.59c0.31-1.84,0.92-1.84,2.15-1.84l4.61,0.31c1.23,0,1.84,0.61,1.84,2.46
		c0.31,9.83,0.92,19.96,11.06,35.63c9.21,14.44,26.11,22.73,43,22.73c18.43,0,41.77-11.36,41.77-39.01
		c0-31.64-22.73-43.31-47.3-51.91c-9.52-3.38-31.64-11.06-44.84-24.88c-10.14-10.14-15.36-24.57-15.36-44.84
		c0-15.36,9.52-30.41,19.04-39.32c11.06-10.44,26.41-14.74,43-14.74c17.51,0,31.02,5.22,36.24,7.68c2.76,1.54,4.3,1.23,5.84-0.31
		l3.99-3.69c1.54-1.23,2.46-1.84,3.99-1.84c1.54,0,2.46,2.46,2.46,5.22c0,10.75,3.99,42.08,4.3,48.84c0,1.54-0.31,2.15-1.54,2.46
		l-3.69,0.92c-0.92,0.31-1.54,0-1.84-0.92c-2.46-8.91-6.45-20.89-19.04-34.09c-8.29-8.91-19.04-13.21-33.48-13.21
		c-27.34,0-37.17,20.27-37.17,35.94c0,8.6,1.84,18.74,9.52,26.72c8.91,8.91,26.11,15.66,35.02,18.43
		c21.19,6.76,38.39,11.98,49.45,25.49c7.99,9.52,13.51,21.5,13.51,41.77c0,36.24-22.11,67.27-62.66,67.27
		C385.5,500.46,370.45,494.01,358.17,484.49z"/>
</g>
<g>
	<path d="M187.69,169.45c0,9.37,0.2,36.47,0.4,39.26c0.4,4.38,2.39,6.38,6.58,6.38h12.75c1.39,0,1.59,0.6,1.59,1.4v4.78
		c0,1-0.2,1.59-1.79,1.59c-2.79,0-8.97-0.6-27.7-0.6c-17.54,0-25.31,0.6-27.5,0.6c-1.39,0-1.59-0.6-1.59-1.4v-4.98
		c0-1,0.2-1.4,1.2-1.4h8.57c6.78,0,8.17-1,8.77-6.38c0.2-1.99,0.8-33.08,0.8-56.2v-22.92c0-13.15-0.2-34.87-0.4-36.87
		c-0.4-3.99-2.39-4.38-7.77-4.38h-11.36c-1,0-1.2-0.4-1.2-1.59v-4.78c0-1,0.2-1.4,1.2-1.4c2.19,0,9.37,0.6,28.3,0.6
		c3.59,0,15.34-0.6,21.92-0.6c22.52,0,33.08,2.19,44.44,9.96c9.37,6.38,15.15,17.54,15.15,28.9c0,25.11-18.93,40.65-50.62,40.65
		c-7.37,0-15.34-0.2-21.72-1V169.45z M187.69,151.91c3.99,1.2,10.56,1.79,18.33,1.79c12.16,0,22.92-6.58,28.1-13.55
		c4.38-5.78,5.18-13.15,5.18-20.13c0-26.11-24.31-33.08-36.07-33.08c-3.39,0-11.56,0-15.54,1.4V151.91z"/>
	<path d="M348.91,181.8c0,9.57,0,19.33,0.4,23.52c0.6,6.18,2.79,6.97,5.18,6.97c1.2,0,4.19,0,6.58-0.6c1.59-0.4,2.19,0,2.39,0.8
		l0.6,2.59c0.2,1.2-0.2,1.59-1,1.79l-20.92,6.97c-1.2,0.4-2.39,0.8-3.99,0.8c-0.8,0-1.59-0.4-1.79-2.39l-1.59-11.56h-0.4
		c-5.58,7.77-17.14,13.95-27.1,13.95c-5.58,0-12.16-0.6-18.73-9.17c-8.17-10.56-7.77-17.14-7.77-39.06V153.1
		c-0.2-5.58-2.99-6.97-7.57-7.57c-3.39-0.2-4.38-0.4-4.38-1.39v-3.59c0-1.2,0.4-1.59,2.19-1.59h17.74c1.2,0,1.99-0.2,2.79-0.4
		c0.8,0,1.59-0.2,2.19-0.2c1.39,0,2.39,1,2.19,2.39c-0.2,1.79-0.8,11.16-0.8,22.92v14.35c0,7.97-1.99,20.73,4.38,29.89
		c4.98,7.17,10.56,7.57,15.94,7.57c5.38,0,13.35-5.18,17.14-9.96c0.8-1,1.99-3.59,1.99-5.38v-47.63c-0.4-5.58-3.59-6.58-8.57-6.97
		c-3.39,0-4.38-0.4-4.38-1.39v-3.39c0-1.59,0.4-1.79,2.39-1.79h18.53c1.39,0,2.39-0.2,3.39-0.4c1,0,1.79-0.2,2.39-0.2
		c1.2,0,1.99,1,1.79,1.99c-0.2,1.79-1.2,6.97-1.2,26.51V181.8z"/>
	<path d="M385.97,169.25c0-10.16-1.59-12.16-7.17-15.15l-3.79-1.99c-1.2-0.4-1.59-0.6-1.59-1.4v-1.2c0-0.8,0.4-1.2,1.59-1.79
		l19.73-10.16c1.2-0.6,1.99-0.8,2.79-0.8c1.2,0,1.39,1.2,1.39,2.39l1,14.15h0.8c5.98-9.17,15.35-17.34,23.91-17.34
		c6.78,0,10.16,4.19,10.16,8.77c0,5.78-4.78,9.76-8.37,9.76c-2.19,0-4.19-0.8-5.78-1.59c-1.59-1-3.99-1.59-6.58-1.59
		c-3.19,0-8.37,1.99-11.76,8.37c-1.2,2.19-1.99,5.78-1.99,6.38v41.45c0,6.18,1.4,8.17,5.58,8.17h9.37c1.2,0,1.4,0.6,1.4,1.79v3.59
		c0,1.2-0.2,1.79-1,1.79c-1.2,0-10.36-0.6-21.12-0.6c-12.36,0-20.73,0.6-21.92,0.6c-0.8,0-1.2-0.4-1.2-1.99v-3.39
		c0-1.39,0.4-1.79,2.19-1.79h7.77c2.99,0,4.38-1.2,4.38-3.79c0.2-6.58,0.2-13.55,0.2-23.91V169.25z"/>
	<path d="M455.52,169.25c-0.4,1.79-0.6,4.98-0.6,9.57c0,19.53,12.36,34.28,28.3,34.28c12.16,0,20.73-6.97,24.11-13.55
		c0.4-0.8,1.2-1.2,1.79-1l2.59,1.39c0.6,0.2,1,0.8,0,2.99c-3.59,7.97-13.95,21.72-31.69,21.72c-11.36,0-23.91-3.39-31.29-14.15
		c-6.97-10.16-8.77-17.54-8.77-31.49c0-7.77,1.99-21.12,12.56-31.69c8.57-8.77,18.53-10.56,28.5-10.56
		c22.92,0,29.3,21.52,29.3,29.29c0,2.79-2.39,3.19-5.58,3.19H455.52z M487.21,163.27c3.79,0,5.38-1,5.38-2.79
		c0-4.58-2.39-17.74-15.35-17.74c-8.77,0-17.14,5.78-20.92,20.53H487.21z"/>
</g>
</svg>

